<?xml version="1.0" encoding="utf-8"?>
<!-- Generator: Adobe Illustrator 17.0.0, SVG Export Plug-In . SVG Version: 6.00 Build 0)  -->
<!DOCTYPE svg PUBLIC "-//W3C//DTD SVG 1.1//EN" "http://www.w3.org/Graphics/SVG/1.1/DTD/svg11.dtd">
<svg version="1.1" id="レイヤー_1" xmlns="http://www.w3.org/2000/svg" xmlns:xlink="http://www.w3.org/1999/xlink" x="0px"
	 y="0px" width="40.073px" height="43px" viewBox="0 0 40.073 43" enable-background="new 0 0 40.073 43" xml:space="preserve">
<path fill-rule="evenodd" clip-rule="evenodd" fill="#F6D2A2" stroke="#000000" stroke-width="0.5" stroke-linecap="round" d="
	M5.009,23.277c0.062,1.276,1.336,0.686,1.914,0.287c0.548-0.379,0.708-0.064,0.756-0.811c0.031-0.491,0.088-0.982,0.06-1.475
	c-0.829-0.075-1.73,0.122-2.409,0.616C4.98,22.147,4.324,22.958,5.009,23.277"/>
<path fill-rule="evenodd" clip-rule="evenodd" fill="#C6B198" stroke="#000000" stroke-width="0.5" stroke-linecap="round" d="
	M5.009,23.277c0.185-0.069,0.382-0.118,0.508-0.286"/>
<path fill-rule="evenodd" clip-rule="evenodd" fill="#6AD7E5" stroke="#000000" stroke-width="0.5" stroke-linecap="round" d="
	M7.954,8.078c-4.884-1.373-1.252-7.587,2.67-5.031L7.954,8.078z"/>
<path fill-rule="evenodd" clip-rule="evenodd" fill="#6AD7E5" stroke="#000000" stroke-width="0.5" stroke-linecap="round" d="
	M29.654,2.581c3.866-2.715,7.359,3.411,2.866,4.952L29.654,2.581z"/>
<path fill-rule="evenodd" clip-rule="evenodd" fill="#F6D2A2" stroke="#000000" stroke-width="0.5" d="M30.485,38.978
	c0.982,0.608,2.777,2.445,1.304,3.336c-1.415,1.296-2.208-1.422-3.45-1.799C28.874,39.788,29.552,39.126,30.485,38.978z"/>
<path fill-rule="evenodd" clip-rule="evenodd" fill="none" stroke="#000000" stroke-width="0.5" stroke-linecap="round" d="
	M31.789,42.314c-0.218-0.434-0.292-0.941-0.656-1.291"/>
<path fill-rule="evenodd" clip-rule="evenodd" fill="#F6D2A2" stroke="#000000" stroke-width="0.5" stroke-linecap="round" d="
	M12.942,41.055c-1.153,0.178-1.801,1.218-2.762,1.746c-0.905,0.54-1.252-0.173-1.333-0.318c-0.142-0.065-0.13,0.06-0.349-0.16
	c-0.839-1.325,0.875-2.293,1.767-2.951C11.508,39.121,12.287,40.198,12.942,41.055z"/>
<path fill-rule="evenodd" clip-rule="evenodd" fill="none" stroke="#000000" stroke-width="0.5" stroke-linecap="round" d="
	M8.847,42.483c0.044-0.505,0.444-0.843,0.635-1.27"/>
<path fill-rule="evenodd" clip-rule="evenodd" d="M8.158,6.362C7.513,6.021,7.041,5.558,7.435,4.813
	C7.8,4.123,8.478,4.198,9.122,4.539L8.158,6.362z"/>
<path fill-rule="evenodd" clip-rule="evenodd" d="M31.502,5.714c0.644-0.341,1.117-0.804,0.723-1.549
	c-0.365-0.69-1.043-0.615-1.687-0.274L31.502,5.714z"/>
<path fill-rule="evenodd" clip-rule="evenodd" fill="#F6D2A2" stroke="#000000" stroke-width="0.5" d="M35.938,23.115
	c-0.062,1.276-1.336,0.686-1.914,0.287c-0.548-0.379-0.708-0.064-0.756-0.811c-0.031-0.491-0.088-0.982-0.06-1.475
	c0.829-0.075,1.73,0.122,2.409,0.616C35.966,21.985,36.623,22.796,35.938,23.115"/>
<path fill-rule="evenodd" clip-rule="evenodd" fill="#C6B198" stroke="#000000" stroke-width="0.5" stroke-linecap="round" d="
	M35.938,23.115c-0.185-0.069-0.382-0.118-0.508-0.286"/>
<g>
	<path fill-rule="evenodd" clip-rule="evenodd" fill="#6AD7E5" stroke="#000000" stroke-width="0.5" d="M19.984,0
		c4.89,0,9.473,0.699,11.863,5.397c2.145,5.265,1.382,10.943,1.709,16.508c0.281,4.778,0.904,10.299-1.313,14.727
		c-2.332,4.659-8.159,5.831-12.96,5.659c-3.771-0.135-8.326-1.365-10.455-4.81c-2.497-4.042-1.315-10.052-1.133-14.549
		C7.909,17.604,6.251,12.26,8.001,7.047C9.817,1.639,14.714,0.417,19.984,0"/>
</g>
<path fill-rule="evenodd" clip-rule="evenodd" fill="#FFFFFF" stroke="#000000" stroke-width="0.5" stroke-linecap="round" d="
	M20.847,6.564c0.878,5.103,9.22,3.754,8.021-1.393C27.794,0.556,20.555,1.833,20.847,6.564"/>
<path fill-rule="evenodd" clip-rule="evenodd" fill="#FFFFFF" stroke="#000000" stroke-width="0.5" stroke-linecap="round" d="
	M10.879,7.389c1.138,4.443,8.251,3.305,7.983-1.151C18.54,0.901,9.791,1.93,10.879,7.389"/>
<path fill-rule="evenodd" clip-rule="evenodd" fill="#FFFFFF" stroke="#000000" stroke-width="0.5" stroke-linecap="round" d="
	M21.853,12.688c0.004,0.663,0.151,1.408,0.025,2.114c-0.169,0.32-0.502,0.354-0.788,0.483c-0.396-0.062-0.729-0.322-0.888-0.693
	c-0.102-0.806,0.038-1.586,0.064-2.392L21.853,12.688z"/>
<g>
	<ellipse fill-rule="evenodd" clip-rule="evenodd" cx="12.84" cy="6.665" rx="1.201" ry="1.301"/>
	<ellipse fill-rule="evenodd" clip-rule="evenodd" fill="#FFFFFF" cx="13.387" cy="6.958" rx="0.283" ry="0.331"/>
</g>
<g>
	<ellipse fill-rule="evenodd" clip-rule="evenodd" cx="22.904" cy="6.341" rx="1.181" ry="1.301"/>
	<ellipse fill-rule="evenodd" clip-rule="evenodd" fill="#FFFFFF" cx="23.442" cy="6.634" rx="0.279" ry="0.331"/>
</g>
<path fill-rule="evenodd" clip-rule="evenodd" fill="#FFFFFF" stroke="#000000" stroke-width="0.5" stroke-linecap="round" d="
	M18.421,12.615c-0.524,1.27,0.292,3.81,1.714,1.937c-0.102-0.806,0.038-1.586,0.064-2.392L18.421,12.615z"/>
<g>
	<path fill-rule="evenodd" clip-rule="evenodd" fill="#F6D2A2" stroke="#231F20" stroke-width="0.5" stroke-linecap="round" d="
		M18.6,10.169c-0.977,0.083-1.775,1.245-1.267,2.163c0.673,1.217,2.174-0.108,3.109,0.016c1.076,0.022,1.958,1.138,2.822,0.202
		c0.961-1.041-0.414-2.055-1.489-2.509L18.6,10.169z"/>
	<path fill-rule="evenodd" clip-rule="evenodd" d="M18.477,10.119c-0.072-1.692,3.154-1.904,3.535-0.487
		C22.392,11.044,18.636,11.373,18.477,10.119C18.35,9.117,18.477,10.119,18.477,10.119z"/>
</g>
</svg>
