<?xml version="1.0" encoding="utf-8"?>
<!-- Generator: Adobe Illustrator 17.0.0, SVG Export Plug-In . SVG Version: 6.00 Build 0)  -->
<!DOCTYPE svg PUBLIC "-//W3C//DTD SVG 1.1//EN" "http://www.w3.org/Graphics/SVG/1.1/DTD/svg11.dtd">
<svg version="1.1" id="Layer_1" xmlns="http://www.w3.org/2000/svg" xmlns:xlink="http://www.w3.org/1999/xlink" x="0px" y="0px"
	 width="40px" height="43px" viewBox="236.5 310.774 40 43" enable-background="new 236.5 310.774 40 43" xml:space="preserve">
<path fill="#5382A1" d="M250.728,344.028c0,0-1.643,0.956,1.169,1.279c3.407,0.389,5.149,0.333,8.904-0.378
	c0,0,0.987,0.619,2.366,1.155C254.749,349.693,244.116,345.876,250.728,344.028"/>
<path fill="#5382A1" d="M249.699,339.321c0,0-1.843,1.364,0.972,1.655c3.64,0.376,6.514,0.406,11.488-0.552
	c0,0,0.688,0.697,1.77,1.079C253.751,344.479,242.415,341.738,249.699,339.321"/>
<path fill="#E76F00" d="M258.37,331.335c2.074,2.388-0.545,4.537-0.545,4.537s5.267-2.719,2.848-6.123
	c-2.259-3.175-3.991-4.752,5.387-10.191C266.06,319.557,251.34,323.233,258.37,331.335"/>
<path fill="#5382A1" d="M269.504,347.511c0,0,1.216,1.002-1.339,1.777c-4.859,1.472-20.223,1.916-24.491,0.059
	c-1.534-0.667,1.343-1.594,2.248-1.788c0.944-0.205,1.483-0.167,1.483-0.167c-1.706-1.202-11.029,2.36-4.735,3.38
	C259.832,353.555,273.955,349.519,269.504,347.511"/>
<path fill="#5382A1" d="M251.518,334.443c0,0-7.815,1.856-2.768,2.53c2.131,0.285,6.38,0.221,10.337-0.111
	c3.234-0.273,6.482-0.853,6.482-0.853s-1.14,0.488-1.966,1.052c-7.936,2.087-23.267,1.116-18.854-1.019
	C248.483,334.238,251.518,334.443,251.518,334.443"/>
<path fill="#5382A1" d="M265.537,342.279c8.067-4.192,4.337-8.221,1.734-7.678c-0.638,0.133-0.923,0.248-0.923,0.248
	s0.237-0.371,0.689-0.532c5.151-1.811,9.112,5.341-1.663,8.173C265.375,342.491,265.5,342.379,265.537,342.279"/>
<path fill="#E76F00" d="M260.673,310.774c0,0,4.468,4.469-4.238,11.342c-6.981,5.513-1.592,8.656-0.003,12.248
	c-4.075-3.677-7.065-6.913-5.059-9.925C254.318,320.017,262.476,317.874,260.673,310.774"/>
<path fill="#5382A1" d="M252.311,353.639c7.744,0.496,19.635-0.275,19.917-3.939c0,0-0.541,1.389-6.4,2.492
	c-6.609,1.244-14.761,1.099-19.596,0.301C246.231,352.493,247.221,353.313,252.311,353.639"/>
</svg>
