<?xml version="1.0" encoding="utf-8"?>
<!-- Generator: Adobe Illustrator 17.0.0, SVG Export Plug-In . SVG Version: 6.00 Build 0)  -->
<!DOCTYPE svg PUBLIC "-//W3C//DTD SVG 1.1//EN" "http://www.w3.org/Graphics/SVG/1.1/DTD/svg11.dtd">
<svg version="1.1" xmlns="http://www.w3.org/2000/svg" xmlns:xlink="http://www.w3.org/1999/xlink" x="0px" y="0px"
	 width="39.124px" height="43px" viewBox="75.776 25.5 39.124 43" enable-background="new 75.776 25.5 39.124 43"
	 xml:space="preserve">
<g id="Capa_2">
	<rect x="0" y="-5.5" fill="#8892BF" width="192" height="101.5"/>
</g>
<g id="Capa_1" xmlns:svg="http://www.w3.org/2000/svg">
	<g transform="translate(-44.63166,-445.54704)">
		<g transform="matrix(2,0,0,2,-140.15749,-493.22304)">
			<path d="M132.457,490.803h2.669c0.784,0.007,1.351,0.232,1.703,0.677c0.352,0.445,0.468,1.053,0.349,1.823
				c-0.046,0.352-0.149,0.697-0.309,1.036c-0.153,0.339-0.365,0.644-0.637,0.916c-0.332,0.345-0.687,0.564-1.066,0.657
				c-0.379,0.093-0.77,0.139-1.175,0.139h-1.195l-0.379,1.893h-1.385L132.457,490.803L132.457,490.803 M133.622,491.939
				l-0.598,2.988c0.04,0.007,0.08,0.01,0.12,0.01c0.046,0,0.093,0,0.139,0c0.637,0.007,1.169-0.056,1.594-0.189
				c0.425-0.139,0.711-0.624,0.857-1.454c0.12-0.697,0-1.099-0.359-1.205c-0.352-0.106-0.794-0.156-1.325-0.149
				c-0.08,0.007-0.156,0.01-0.229,0.01c-0.066,0-0.136,0-0.209,0L133.622,491.939"/>
			<path d="M138.755,488.901h1.375l-0.388,1.903h1.235c0.677,0.013,1.182,0.153,1.514,0.418c0.339,0.266,0.438,0.77,0.299,1.514
				l-0.667,3.317h-1.395l0.637-3.168c0.066-0.332,0.046-0.568-0.06-0.707c-0.106-0.139-0.335-0.209-0.687-0.209l-1.106-0.01
				l-0.817,4.094h-1.375L138.755,488.901L138.755,488.901"/>
			<path d="M144.266,490.803h2.669c0.784,0.007,1.351,0.232,1.703,0.677c0.352,0.445,0.468,1.053,0.349,1.823
				c-0.046,0.352-0.149,0.697-0.309,1.036c-0.153,0.339-0.365,0.644-0.637,0.916c-0.332,0.345-0.687,0.564-1.066,0.657
				c-0.379,0.093-0.77,0.139-1.175,0.139h-1.195l-0.379,1.893h-1.385L144.266,490.803L144.266,490.803 M145.431,491.939
				l-0.598,2.988c0.04,0.007,0.08,0.01,0.12,0.01c0.046,0,0.093,0,0.139,0c0.637,0.007,1.169-0.056,1.594-0.189
				c0.425-0.139,0.711-0.624,0.857-1.454c0.12-0.697,0-1.099-0.359-1.205c-0.352-0.106-0.794-0.156-1.325-0.149
				c-0.08,0.007-0.156,0.01-0.229,0.01c-0.066,0-0.136,0-0.209,0L145.431,491.939"/>
		</g>
	</g>
</g>
</svg>
